<svg width="438" height="209" viewBox="0 0 438 209" fill="none" xmlns="http://www.w3.org/2000/svg">
<path d="M0 0L94 31.35V177.65L0 209V0Z" fill="#66666E"/>
<path d="M13.44 140V50.4H53.632C63.9573 50.4 71.8933 52.4907 77.44 56.672C82.9867 60.768 85.76 66.4 85.76 73.568C85.76 78.432 84.6507 82.528 82.432 85.856C80.2987 89.184 77.3973 91.744 73.728 93.536C70.0587 95.328 66.0907 96.224 61.824 96.224L64.128 92.384C69.248 92.384 73.7707 93.28 77.696 95.072C81.6213 96.864 84.736 99.5093 87.04 103.008C89.344 106.421 90.496 110.688 90.496 115.808C90.496 123.488 87.5947 129.461 81.792 133.728C76.0747 137.909 67.5413 140 56.192 140H13.44ZM26.24 129.632H55.68C62.7627 129.632 68.1813 128.437 71.936 126.048C75.6907 123.659 77.568 119.904 77.568 114.784C77.568 109.579 75.6907 105.781 71.936 103.392C68.1813 101.003 62.7627 99.808 55.68 99.808H25.088V89.44H52.48C58.9653 89.44 64 88.2453 67.584 85.856C71.168 83.4667 72.96 79.8827 72.96 75.104C72.96 70.3253 71.168 66.7413 67.584 64.352C64 61.9627 58.9653 60.768 52.48 60.768H26.24V129.632Z" fill="#FC864F"/>
<path d="M138.731 140.768C131.478 140.768 125.078 139.275 119.531 136.288C114.07 133.301 109.803 129.205 106.731 124C103.744 118.795 102.251 112.821 102.251 106.08C102.251 99.3387 103.702 93.3653 106.603 88.16C109.59 82.9547 113.643 78.9013 118.763 76C123.968 73.0133 129.814 71.52 136.299 71.52C142.87 71.52 148.672 72.9707 153.707 75.872C158.742 78.7733 162.667 82.8693 165.483 88.16C168.384 93.3653 169.835 99.4667 169.835 106.464C169.835 106.976 169.792 107.573 169.707 108.256C169.707 108.939 169.664 109.579 169.579 110.176H111.851V101.344H163.179L158.187 104.416C158.272 100.064 157.376 96.1813 155.499 92.768C153.622 89.3547 151.019 86.7093 147.691 84.832C144.448 82.8693 140.651 81.888 136.299 81.888C132.032 81.888 128.235 82.8693 124.907 84.832C121.579 86.7093 118.976 89.3973 117.099 92.896C115.222 96.3093 114.283 100.235 114.283 104.672V106.72C114.283 111.243 115.307 115.296 117.355 118.88C119.488 122.379 122.432 125.109 126.187 127.072C129.942 129.035 134.251 130.016 139.115 130.016C143.126 130.016 146.752 129.333 149.995 127.968C153.323 126.603 156.224 124.555 158.699 121.824L165.483 129.76C162.411 133.344 158.571 136.075 153.963 137.952C149.44 139.829 144.363 140.768 138.731 140.768ZM216.594 165.6C210.365 165.6 204.306 164.704 198.418 162.912C192.615 161.205 187.879 158.731 184.21 155.488L190.098 146.016C193.255 148.747 197.138 150.88 201.746 152.416C206.354 154.037 211.175 154.848 216.21 154.848C224.231 154.848 230.119 152.971 233.874 149.216C237.629 145.461 239.506 139.744 239.506 132.064V117.728L240.786 104.288L240.146 90.72V72.16H251.794V130.784C251.794 142.731 248.807 151.52 242.834 157.152C236.861 162.784 228.114 165.6 216.594 165.6ZM215.058 137.184C208.487 137.184 202.599 135.819 197.394 133.088C192.274 130.272 188.178 126.389 185.106 121.44C182.119 116.491 180.626 110.773 180.626 104.288C180.626 97.7173 182.119 92 185.106 87.136C188.178 82.1867 192.274 78.3467 197.394 75.616C202.599 72.8853 208.487 71.52 215.058 71.52C220.861 71.52 226.151 72.7147 230.93 75.104C235.709 77.408 239.506 80.992 242.322 85.856C245.223 90.72 246.674 96.864 246.674 104.288C246.674 111.627 245.223 117.728 242.322 122.592C239.506 127.456 235.709 131.125 230.93 133.6C226.151 135.989 220.861 137.184 215.058 137.184ZM216.466 126.432C220.989 126.432 224.999 125.493 228.498 123.616C231.997 121.739 234.727 119.136 236.69 115.808C238.738 112.48 239.762 108.64 239.762 104.288C239.762 99.936 238.738 96.096 236.69 92.768C234.727 89.44 231.997 86.88 228.498 85.088C224.999 83.2107 220.989 82.272 216.466 82.272C211.943 82.272 207.89 83.2107 204.306 85.088C200.807 86.88 198.034 89.44 195.986 92.768C194.023 96.096 193.042 99.936 193.042 104.288C193.042 108.64 194.023 112.48 195.986 115.808C198.034 119.136 200.807 121.739 204.306 123.616C207.89 125.493 211.943 126.432 216.466 126.432ZM305.481 140.768C298.228 140.768 291.828 139.275 286.281 136.288C280.82 133.301 276.553 129.205 273.481 124C270.494 118.795 269.001 112.821 269.001 106.08C269.001 99.3387 270.452 93.3653 273.353 88.16C276.34 82.9547 280.393 78.9013 285.513 76C290.718 73.0133 296.564 71.52 303.049 71.52C309.62 71.52 315.422 72.9707 320.457 75.872C325.492 78.7733 329.417 82.8693 332.233 88.16C335.134 93.3653 336.585 99.4667 336.585 106.464C336.585 106.976 336.542 107.573 336.457 108.256C336.457 108.939 336.414 109.579 336.329 110.176H278.601V101.344H329.929L324.937 104.416C325.022 100.064 324.126 96.1813 322.249 92.768C320.372 89.3547 317.769 86.7093 314.441 84.832C311.198 82.8693 307.401 81.888 303.049 81.888C298.782 81.888 294.985 82.8693 291.657 84.832C288.329 86.7093 285.726 89.3973 283.849 92.896C281.972 96.3093 281.033 100.235 281.033 104.672V106.72C281.033 111.243 282.057 115.296 284.105 118.88C286.238 122.379 289.182 125.109 292.937 127.072C296.692 129.035 301.001 130.016 305.865 130.016C309.876 130.016 313.502 129.333 316.745 127.968C320.073 126.603 322.974 124.555 325.449 121.824L332.233 129.76C329.161 133.344 325.321 136.075 320.713 137.952C316.19 139.829 311.113 140.768 305.481 140.768ZM389.872 71.52C395.419 71.52 400.283 72.5867 404.464 74.72C408.731 76.8533 412.059 80.096 414.448 84.448C416.837 88.8 418.032 94.304 418.032 100.96V140H405.744V102.368C405.744 95.7973 404.123 90.848 400.88 87.52C397.723 84.192 393.243 82.528 387.44 82.528C383.088 82.528 379.291 83.3813 376.048 85.088C372.805 86.7947 370.288 89.312 368.496 92.64C366.789 95.968 365.936 100.107 365.936 105.056V140H353.648V72.16H365.424V90.464L363.504 85.6C365.723 81.1627 369.136 77.7067 373.744 75.232C378.352 72.7573 383.728 71.52 389.872 71.52Z" fill="#66666E"/>
</svg>
